<mxfile host="app.diagrams.net" modified="2023-11-29T09:29:15.318Z" agent="Mozilla/5.0 (Windows NT 10.0; Win64; x64) AppleWebKit/537.36 (KHTML, like Gecko) Chrome/119.0.0.0 Safari/537.36" etag="Ea0EpJNp1EgU8yWB8ScC" version="22.1.4" type="github">
  <diagram name="Page-1" id="B5llXI-_erB80sFzHADw">
    <mxGraphModel dx="1010" dy="824" grid="1" gridSize="10" guides="1" tooltips="1" connect="1" arrows="1" fold="1" page="1" pageScale="1" pageWidth="827" pageHeight="1169" math="0" shadow="0">
      <root>
        <mxCell id="0" />
        <mxCell id="1" parent="0" />
        <mxCell id="M_S2hfJcHRhj8wXRcyZ3-6" style="edgeStyle=orthogonalEdgeStyle;rounded=0;orthogonalLoop=1;jettySize=auto;html=1;" edge="1" parent="1" source="-Rb9ixtFvugTr6DHxC6b-1" target="M_S2hfJcHRhj8wXRcyZ3-5">
          <mxGeometry relative="1" as="geometry" />
        </mxCell>
        <mxCell id="-Rb9ixtFvugTr6DHxC6b-1" value="Kactus Ingester" style="whiteSpace=wrap;html=1;aspect=fixed;" parent="1" vertex="1">
          <mxGeometry x="360" y="260" width="80" height="80" as="geometry" />
        </mxCell>
        <mxCell id="M_S2hfJcHRhj8wXRcyZ3-2" style="edgeStyle=orthogonalEdgeStyle;rounded=0;orthogonalLoop=1;jettySize=auto;html=1;curved=1;" edge="1" parent="1" source="M_S2hfJcHRhj8wXRcyZ3-1" target="-Rb9ixtFvugTr6DHxC6b-1">
          <mxGeometry relative="1" as="geometry" />
        </mxCell>
        <mxCell id="M_S2hfJcHRhj8wXRcyZ3-1" value="Swiftly &amp;amp; Agency&lt;br&gt;Realtime Data&lt;br&gt;" style="ellipse;shape=cloud;whiteSpace=wrap;html=1;" vertex="1" parent="1">
          <mxGeometry x="90" y="230" width="120" height="80" as="geometry" />
        </mxCell>
        <mxCell id="M_S2hfJcHRhj8wXRcyZ3-8" style="edgeStyle=orthogonalEdgeStyle;rounded=0;orthogonalLoop=1;jettySize=auto;html=1;" edge="1" parent="1" source="M_S2hfJcHRhj8wXRcyZ3-3" target="M_S2hfJcHRhj8wXRcyZ3-4">
          <mxGeometry relative="1" as="geometry" />
        </mxCell>
        <mxCell id="M_S2hfJcHRhj8wXRcyZ3-3" value="Ingester" style="rounded=0;whiteSpace=wrap;html=1;" vertex="1" parent="1">
          <mxGeometry x="180" y="400" width="120" height="60" as="geometry" />
        </mxCell>
        <mxCell id="M_S2hfJcHRhj8wXRcyZ3-16" style="edgeStyle=orthogonalEdgeStyle;rounded=0;orthogonalLoop=1;jettySize=auto;html=1;entryX=0;entryY=0.5;entryDx=0;entryDy=0;" edge="1" parent="1" source="M_S2hfJcHRhj8wXRcyZ3-4" target="M_S2hfJcHRhj8wXRcyZ3-15">
          <mxGeometry relative="1" as="geometry" />
        </mxCell>
        <mxCell id="M_S2hfJcHRhj8wXRcyZ3-25" style="edgeStyle=orthogonalEdgeStyle;rounded=0;orthogonalLoop=1;jettySize=auto;html=1;exitX=1;exitY=0;exitDx=0;exitDy=90;exitPerimeter=0;entryX=0;entryY=0.5;entryDx=0;entryDy=0;" edge="1" parent="1" source="M_S2hfJcHRhj8wXRcyZ3-4" target="M_S2hfJcHRhj8wXRcyZ3-20">
          <mxGeometry relative="1" as="geometry" />
        </mxCell>
        <mxCell id="M_S2hfJcHRhj8wXRcyZ3-4" value="Postgres GTFS Static&amp;nbsp;&lt;br&gt;Routes" style="shape=cylinder3;whiteSpace=wrap;html=1;boundedLbl=1;backgroundOutline=1;size=15;" vertex="1" parent="1">
          <mxGeometry x="210" y="490" width="120" height="130" as="geometry" />
        </mxCell>
        <mxCell id="M_S2hfJcHRhj8wXRcyZ3-21" style="edgeStyle=orthogonalEdgeStyle;rounded=0;orthogonalLoop=1;jettySize=auto;html=1;" edge="1" parent="1" source="M_S2hfJcHRhj8wXRcyZ3-5" target="M_S2hfJcHRhj8wXRcyZ3-17">
          <mxGeometry relative="1" as="geometry" />
        </mxCell>
        <mxCell id="M_S2hfJcHRhj8wXRcyZ3-5" value="Redis" style="shape=internalStorage;whiteSpace=wrap;html=1;backgroundOutline=1;" vertex="1" parent="1">
          <mxGeometry x="470" y="270" width="80" height="80" as="geometry" />
        </mxCell>
        <mxCell id="M_S2hfJcHRhj8wXRcyZ3-13" style="edgeStyle=orthogonalEdgeStyle;rounded=0;orthogonalLoop=1;jettySize=auto;html=1;entryX=0;entryY=0.25;entryDx=0;entryDy=0;" edge="1" parent="1" source="M_S2hfJcHRhj8wXRcyZ3-10" target="M_S2hfJcHRhj8wXRcyZ3-3">
          <mxGeometry relative="1" as="geometry" />
        </mxCell>
        <mxCell id="M_S2hfJcHRhj8wXRcyZ3-10" value="Download&amp;nbsp;&lt;br&gt;from transitland" style="ellipse;shape=cloud;whiteSpace=wrap;html=1;" vertex="1" parent="1">
          <mxGeometry x="20" y="350" width="120" height="80" as="geometry" />
        </mxCell>
        <mxCell id="M_S2hfJcHRhj8wXRcyZ3-14" style="edgeStyle=orthogonalEdgeStyle;rounded=0;orthogonalLoop=1;jettySize=auto;html=1;exitX=0.96;exitY=0.7;exitDx=0;exitDy=0;exitPerimeter=0;entryX=0;entryY=0.75;entryDx=0;entryDy=0;" edge="1" parent="1" source="M_S2hfJcHRhj8wXRcyZ3-11" target="M_S2hfJcHRhj8wXRcyZ3-3">
          <mxGeometry relative="1" as="geometry" />
        </mxCell>
        <mxCell id="M_S2hfJcHRhj8wXRcyZ3-11" value="Feed&lt;br&gt;zip&lt;br&gt;files" style="ellipse;shape=cloud;whiteSpace=wrap;html=1;" vertex="1" parent="1">
          <mxGeometry x="50" y="490" width="120" height="80" as="geometry" />
        </mxCell>
        <mxCell id="M_S2hfJcHRhj8wXRcyZ3-12" value="&lt;font style=&quot;font-size: 20px;&quot;&gt;Current Architecture, Single server&lt;/font&gt;" style="text;html=1;strokeColor=none;fillColor=none;align=center;verticalAlign=middle;whiteSpace=wrap;rounded=0;" vertex="1" parent="1">
          <mxGeometry x="80" y="170" width="400" height="30" as="geometry" />
        </mxCell>
        <mxCell id="M_S2hfJcHRhj8wXRcyZ3-15" value="Rust&lt;br&gt;HTTP Server&lt;br&gt;Backend" style="rounded=0;whiteSpace=wrap;html=1;" vertex="1" parent="1">
          <mxGeometry x="414" y="450" width="120" height="60" as="geometry" />
        </mxCell>
        <mxCell id="M_S2hfJcHRhj8wXRcyZ3-17" value="Kactus http server" style="rounded=0;whiteSpace=wrap;html=1;" vertex="1" parent="1">
          <mxGeometry x="620" y="280" width="120" height="60" as="geometry" />
        </mxCell>
        <mxCell id="M_S2hfJcHRhj8wXRcyZ3-19" value="Svelte &amp;amp; Mapbox frontend" style="shape=display;whiteSpace=wrap;html=1;" vertex="1" parent="1">
          <mxGeometry x="600" y="660" width="190" height="80" as="geometry" />
        </mxCell>
        <mxCell id="M_S2hfJcHRhj8wXRcyZ3-20" value="Martin" style="rounded=0;whiteSpace=wrap;html=1;" vertex="1" parent="1">
          <mxGeometry x="370" y="610" width="120" height="60" as="geometry" />
        </mxCell>
        <mxCell id="M_S2hfJcHRhj8wXRcyZ3-22" style="edgeStyle=orthogonalEdgeStyle;rounded=0;orthogonalLoop=1;jettySize=auto;html=1;exitX=0.5;exitY=1;exitDx=0;exitDy=0;entryX=0;entryY=0;entryDx=98.75;entryDy=0;entryPerimeter=0;" edge="1" parent="1" source="M_S2hfJcHRhj8wXRcyZ3-17" target="M_S2hfJcHRhj8wXRcyZ3-19">
          <mxGeometry relative="1" as="geometry" />
        </mxCell>
        <mxCell id="M_S2hfJcHRhj8wXRcyZ3-23" style="edgeStyle=orthogonalEdgeStyle;rounded=0;orthogonalLoop=1;jettySize=auto;html=1;entryX=0;entryY=0.5;entryDx=0;entryDy=0;entryPerimeter=0;" edge="1" parent="1" source="M_S2hfJcHRhj8wXRcyZ3-20" target="M_S2hfJcHRhj8wXRcyZ3-19">
          <mxGeometry relative="1" as="geometry" />
        </mxCell>
        <mxCell id="M_S2hfJcHRhj8wXRcyZ3-24" style="edgeStyle=orthogonalEdgeStyle;rounded=0;orthogonalLoop=1;jettySize=auto;html=1;entryX=0;entryY=0;entryDx=47.5;entryDy=0;entryPerimeter=0;" edge="1" parent="1" source="M_S2hfJcHRhj8wXRcyZ3-15" target="M_S2hfJcHRhj8wXRcyZ3-19">
          <mxGeometry relative="1" as="geometry" />
        </mxCell>
      </root>
    </mxGraphModel>
  </diagram>
</mxfile>
